<svg version="1.2" xmlns="http://www.w3.org/2000/svg" viewBox="0 0 800 800" width="800" height="800"><style>.a{fill:#e0f0e7}.b{fill:#f17b31}.c{fill:#076597}</style><path fill-rule="evenodd" class="a" d="m400 800c-221.2 0-400-178.8-400-400 0-221.2 178.8-400 400-400 221.2 0 400 178.8 400 400 0 221.2-178.8 400-400 400z"/><path class="b" d="m590.9 97.3c-3.9 7.5-8.5 15.1-10.3 16.8-1.8 1.7-5.5 3.8-8.1 4.5-2.7 0.8-9.3 1.4-14.7 1.4-6.3 0-10.4 0.6-11.6 1.8-1.4 1.4-1.1 2.6 1.4 6 1.7 2.3 7 8.4 11.9 13.6 7.5 8.1 8.8 10.1 8.7 14.7 0 2.8-0.9 9-2 13.6-1.1 4.6-2.1 10.4-2.1 12.9 0 3.8 0.5 4.5 3.1 4.5 1.7 0 9.1-3.2 16.4-7.1 10.7-5.7 14.3-7 18.2-6.5 2.7 0.4 10.6 4.2 17.5 8.5 8.9 5.6 13.1 7.5 14.3 6.5 1.3-1 1.4-2.5 0.3-5.9-0.7-2.5-1.8-10.2-2.3-17.1-0.9-11.4-0.6-13.1 2.1-17.8 1.7-2.9 3.5-5.3 4.1-5.2 0.6 0 4.3-3.8 8.4-8.4 4-4.6 7.3-9.1 7.3-9.8 0-0.8-2.4-2.1-5.2-2.8-2.9-0.8-8.7-1.4-13-1.4-5.3-0.1-9.3-1-13.1-3.2-3.4-2-6.7-5.4-8.7-9.4-1.8-3.5-5.1-10.1-7.2-14.7-2.2-4.6-5-8.6-6.1-8.8-1.5-0.3-4.4 3.8-9.3 13.3zm-68.8 438.6c-10.3 1.2-25.1 2.8-32.8 3.6-7.7 0.9-21.2 3.1-30 5-8.9 1.9-18.9 4.1-22.4 4.8-3.5 0.7-6.3 1.4-6.3 1.6 0 0.1-2.2 3.4-4.8 7.3-2.6 3.8-9.8 12.9-15.9 20.2-6.1 7.3-26.6 28.7-45.6 47.5-19 18.9-40.1 41.2-46.9 49.7-6.8 8.4-13 16.2-13.9 17.2-1.1 1.5-0.6 2.6 2 4.6 3.3 2.5 6 2.7 38.5 2.6 25.1 0 35.9-0.5 38.4-1.8 2-1 9.8-11.3 18.3-24.1 12.1-18.1 18.5-26 34.2-42.3 10.7-11 24.1-23.8 29.9-28.5 5.8-4.7 14.9-11.5 20.3-15.1 5.4-3.6 15.8-9.9 23.1-14 7.3-4 18.6-9.7 25.1-12.6 6.6-2.8 18.5-7.1 26.6-9.4 8-2.3 20.3-5.6 27.2-7.2 6.9-1.6 15.1-3.6 18.2-4.4 4.9-1.3 5.3-1.7 3.5-3.5-1.7-1.7-8.6-2.2-34.9-2.6-23.2-0.5-38.4 0-51.8 1.4z"/><path fill-rule="evenodd" class="c" d="m530.2 208.1c0.9 0 2 1.3 2.4 2.8 0.4 1.5-1.2 7-3.5 12.2-2.4 5.2-6.9 13.9-10 19.2-3.2 5.4-8.4 13.9-11.5 18.9-3.1 5-8.8 13.2-12.5 18.2-3.8 5-12.6 14.9-19.6 22.1-7 7.2-18.7 17.5-26 23-7.3 5.4-18.3 13.7-24.5 18.2-6.1 4.6-13.3 10.3-15.9 12.7-2.6 2.4-6.4 8.1-8.4 12.7-2.1 4.6-5.1 12.8-6.8 18.2-1.7 5.4-4.7 16.7-6.7 25.1-2.1 8.5-3.7 17-3.6 18.9 0 1.9 1 4.4 2.1 5.6 1.2 1.1 4.8 3.5 8.1 5.2 3.4 1.6 12.7 6.1 20.7 10 9 4.2 16.8 9 20.1 12.3 3 2.9 6.9 8.3 8.7 12 2.6 5.1 3.4 8.9 3.4 16.7 0 6.8-1.1 14.3-3.5 22.4-1.9 6.7-5.4 16-7.7 20.6-2.3 4.6-4.2 9.8-4.1 11.5 0 1.8-2.3 6.6-5.2 10.9-2.8 4.2-10.1 13.6-16.3 20.9-6.1 7.3-26.9 29-46.3 48.2-19.3 19.3-41.1 42.4-48.4 51.4-9.8 12.3-14.5 17-18.4 18.5-4.2 1.7-16.4 2.3-59.4 3-29.8 0.5-57.1 0.5-60.8 0-5-0.7-6.6-1.5-6.6-3.3 0-1.4 3.9-6.9 8.7-12.3 4.8-5.4 11.1-12.9 13.9-16.8 2.8-3.8 11.2-19.8 18.6-35.6 7.4-15.7 14.3-30.5 15.4-32.8 1-2.3 5.4-12.1 9.7-21.7 4.4-9.6 11.1-25.6 14.9-35.6 3.9-10 8.5-21.9 10.3-26.6 1.8-4.6 7.1-20.3 11.7-34.9 4.7-14.6 10.3-33.8 12.6-42.6 2.2-8.9 5.4-23 7.1-31.5 1.7-8.4 2.8-18.2 2.6-21.6-0.4-5.5-0.9-6.4-3.9-6.8-2-0.2-7.6 1.4-12.6 3.6-5 2.2-15.4 8.8-23.1 14.6-7.7 5.9-20 16.8-27.3 24.4-7.4 7.6-16 17.3-19.1 21.5-3.1 4.2-9.1 11-13.5 15-4.3 4-9.1 7.3-10.6 7.3-1.6 0-3.1-0.9-3.5-2.1-0.4-1.1 0.3-5.4 1.5-9.4 1.3-4 5.4-13.6 9.3-21.3 3.9-7.7 10.2-19 14-25.2 3.8-6.1 10.6-15.5 15-20.9 4.5-5.4 11.2-12.7 14.9-16.3 3.7-3.5 12.7-10.9 20-16.5 7.3-5.5 19.3-13 26.6-16.6 7.3-3.7 16.7-8 20.9-9.7 4.3-1.6 15.3-4.8 24.5-7.1 9.2-2.3 24.2-4.8 33.2-5.7 9-0.8 17.5-2 18.9-2.7 1.3-0.7 7.4-3 13.6-5.1 6.1-2.1 14.9-5.7 19.5-8 4.7-2.4 12.5-6.8 17.5-9.8 5-3.1 15.7-10.9 23.8-17.4 8-6.6 21.8-18.3 30.6-26.1 8.7-7.8 20.1-17.8 25.1-22.4 5.1-4.5 11.1-9.4 13.4-10.8 2.3-1.4 5-2.6 6-2.6zm-193.2 290.3c-0.3 1.4-3.3 7.2-6.5 13-3.2 5.7-8.8 15.2-12.4 20.9-3.7 5.8-10.5 17.1-15.3 25.2-4.8 8-11.9 19.7-15.7 25.8-3.9 6.2-9.1 15.3-11.7 20.3-2.6 5-4.1 9.2-3.3 9.4 0.7 0.2 7.1-2.8 14.2-6.7 7.1-3.9 29-14.9 48.6-24.5 19.6-9.6 38.5-19 41.9-20.8 3.5-1.8 7.6-5.1 9.1-7.2 1.6-2.2 3.9-7.2 5.1-11 1.3-3.8 2.7-10.1 3.3-14 0.5-3.8 0.4-10.1-0.2-14-0.8-5.2-2.2-8.1-5.7-11.5-3.2-3.1-8-5.6-15.8-8-6.2-2-14.4-3.5-18.5-3.5-4 0.1-9.4 1-11.9 2.1-2.5 1.2-4.8 3.2-5.2 4.5z"/><path class="c" d="m339.8 219.3c-3.9 1.4-10.1 5.3-13.9 8.6-4 3.5-8.2 9-10.1 13-2.6 5.6-3.2 9.5-3.3 18.6 0 8.6 0.7 12.8 2.7 16.7 1.5 2.9 5.7 8.2 9.4 11.7 3.8 3.5 9 7.2 11.7 8.3 2.9 1.1 7.6 1.5 11.9 1.1 3.8-0.5 9.2-1.8 11.8-3 2.7-1.3 7.4-4.4 10.5-7 3.4-2.8 7.5-8.4 10.4-14.3 3.6-7.4 4.9-12 5.4-19.5 0.3-5.4-0.1-12.4-0.9-15.7-0.9-3.4-3.9-8.4-6.8-11.6-3.2-3.4-7.7-6.4-11.6-7.7-3.4-1.1-9.4-2-13.2-2-3.9 0.1-10.2 1.3-14 2.8z"/></svg>