<svg version="1.2" xmlns="http://www.w3.org/2000/svg" viewBox="0 0 800 800" width="800" height="800"><style>.a{fill:#f17b31}.b{fill:#076597}</style><path class="a" d="m623.1 24c-5 9.6-10.9 19.2-13.2 21.4-2.3 2.2-7 4.8-10.4 5.8-3.4 1-11.8 1.8-18.7 1.7-7.9 0-13.2 0.8-14.7 2.3-1.8 1.8-1.4 3.3 1.7 7.6 2.2 2.9 9 10.8 15.2 17.4 9.6 10.3 11.2 12.9 11.2 18.6-0.1 3.7-1.2 11.5-2.7 17.4-1.4 5.9-2.6 13.3-2.6 16.5 0 4.8 0.6 5.7 3.9 5.7 2.2 0 11.7-4.1 21-9.1 13.5-7.3 18.1-8.9 23.1-8.2 3.4 0.4 13.4 5.3 22.2 10.8 11.4 7.1 16.7 9.5 18.3 8.3 1.6-1.3 1.7-3.3 0.4-7.5-1-3.2-2.3-13-3-21.8-1-14.5-0.8-16.7 2.7-22.7 2.1-3.7 4.5-6.7 5.2-6.7 0.8 0.1 5.6-4.7 10.7-10.6 5.1-5.9 9.3-11.6 9.3-12.5 0-1-3-2.6-6.6-3.6-3.7-1-11.1-1.8-16.5-1.8-6.8 0-11.9-1.2-16.7-4-4.4-2.5-8.5-6.9-11.2-12-2.2-4.4-6.4-12.8-9.1-18.7-2.8-5.9-6.3-10.9-7.8-11.2-1.9-0.4-5.5 4.9-11.7 16.9zm-87.6 558.6c-13.3 1.5-32.1 3.5-41.9 4.6-9.8 1.1-27 3.9-38.2 6.3-11.3 2.5-24.1 5.2-28.5 6.1-4.4 0.9-8 1.9-8 2.1-0.1 0.2-2.8 4.3-6.2 9.2-3.3 4.9-12.4 16.5-20.2 25.8-7.8 9.3-33.9 36.6-58.1 60.5-24.1 24-51 52.5-59.7 63.2-8.7 10.8-16.6 20.7-17.6 22-1.5 1.9-0.9 3.3 2.5 5.9 4.1 3.2 7.7 3.4 49 3.3 32-0.1 45.7-0.7 48.9-2.3 2.5-1.3 12.5-14.4 23.3-30.7 15.3-23.1 23.5-33.2 43.6-53.9 13.6-14 30.7-30.3 38.1-36.3 7.3-5.9 18.9-14.6 25.8-19.2 6.8-4.6 20.1-12.6 29.4-17.8 9.3-5.2 23.7-12.4 32-16 8.3-3.7 23.5-9.1 33.8-12.1 10.3-2.9 25.9-7.1 34.7-9.1 8.8-2.1 19.2-4.6 23.1-5.7 6.3-1.6 6.8-2.1 4.5-4.4-2.2-2.1-10.9-2.8-44.5-3.4-29.5-0.5-48.9 0.1-65.8 1.9z"/><path fill-rule="evenodd" class="b" d="m545.7 165.1c1.2 0 2.6 1.6 3.1 3.6 0.5 2-1.6 9-4.5 15.6-3 6.6-8.8 17.6-12.8 24.4-4 6.9-10.6 17.7-14.6 24-4 6.4-11.2 16.8-15.9 23.2-4.8 6.3-16 19-25 28.2-8.9 9.1-23.8 22.3-33.1 29.2-9.3 7-23.3 17.4-31.1 23.3-7.9 5.8-17 13.1-20.3 16.1-3.3 3.1-8.1 10.3-10.7 16.2-2.7 5.9-6.6 16.3-8.7 23.1-2.1 6.9-6 21.3-8.6 32.1-2.5 10.7-4.6 21.5-4.5 24 0 2.4 1.3 5.6 2.7 7.1 1.5 1.5 6.1 4.4 10.4 6.6 4.2 2.1 16 7.9 26.3 12.7 11.4 5.4 21.4 11.5 25.6 15.7 3.7 3.8 8.7 10.6 11.1 15.3 3.3 6.6 4.3 11.3 4.3 21.3 0 8.6-1.5 18.2-4.5 28.5-2.4 8.6-6.8 20.4-9.8 26.3-2.9 5.8-5.3 12.4-5.3 14.7 0.1 2.2-2.8 8.4-6.5 13.7-3.6 5.4-12.9 17.4-20.7 26.7-7.9 9.3-34.4 37-59 61.4-24.7 24.5-52.4 53.9-61.6 65.5-12.6 15.6-18.5 21.6-23.5 23.5-5.3 2.1-20.9 2.9-75.6 3.8-38 0.7-72.8 0.7-77.5 0-6.4-0.8-8.4-1.9-8.4-4.2 0-1.7 5-8.8 11.1-15.6 6.1-6.9 14.1-16.5 17.7-21.4 3.6-4.9 14.3-25.3 23.7-45.3 9.4-20.1 18.2-38.9 19.5-41.9 1.4-2.9 7-15.3 12.5-27.5 5.5-12.3 14-32.7 18.9-45.4 4.9-12.7 10.8-28 13.1-33.8 2.3-5.9 9-25.9 14.9-44.5 6-18.6 13.2-43 16-54.3 2.9-11.3 7-29.3 9.1-40 2.1-10.8 3.6-23.2 3.3-27.6-0.5-7.1-1.1-8.1-5-8.6-2.4-0.3-9.6 1.7-16 4.5-6.4 2.8-19.6 11.2-29.4 18.6-9.8 7.5-25.4 21.4-34.8 31.1-9.4 9.6-20.3 21.9-24.2 27.3-4 5.4-11.7 14-17.2 19.2-5.6 5.1-11.7 9.3-13.6 9.3-2 0-4-1.2-4.5-2.7-0.5-1.4 0.4-6.8 2-12 1.6-5.1 6.9-17.3 11.8-27.1 4.9-9.8 12.9-24.2 17.8-32 4.9-7.9 13.5-19.9 19.2-26.7 5.6-6.9 14.2-16.2 18.9-20.7 4.7-4.6 16.2-14 25.5-21 9.3-7 24.5-16.6 33.8-21.3 9.3-4.6 21.3-10.2 26.7-12.2 5.4-2.1 19.4-6.2 31.2-9.1 11.7-2.9 30.7-6.2 42.2-7.3 11.5-1 22.4-2.6 24.1-3.5 1.7-0.8 9.5-3.7 17.3-6.4 7.8-2.7 19.1-7.3 24.9-10.3 5.9-2.9 15.9-8.5 22.3-12.4 6.3-4 20-13.9 30.2-22.2 10.3-8.3 27.8-23.2 39-33.1 11.2-10 25.6-22.8 32-28.6 6.5-5.8 14.2-12 17.1-13.8 3-1.8 6.4-3.3 7.6-3.3zm-246 369.8c-0.4 1.7-4.2 9.1-8.3 16.4-4.1 7.4-11.2 19.4-15.8 26.7-4.7 7.4-13.4 21.8-19.5 32-6.1 10.3-15.1 25.1-20 33-4.9 7.8-11.6 19.4-14.9 25.8-3.3 6.3-5.2 11.7-4.2 12 0.9 0.2 9.1-3.6 18.1-8.6 9.1-4.9 36.9-19 61.9-31.2 24.9-12.2 49-24.1 53.4-26.4 4.4-2.3 9.6-6.5 11.6-9.3 2-2.8 4.9-9 6.5-13.9 1.6-4.9 3.4-12.9 4.1-17.8 0.6-4.9 0.6-12.9-0.2-17.8-1-6.7-2.9-10.4-7.3-14.7-4-4-10.2-7.2-20.1-10.3-7.9-2.4-18.4-4.4-23.5-4.3-5.2 0-12 1.2-15.2 2.6-3.2 1.5-6.1 4-6.6 5.8z"/><path class="b" d="m303.2 179.4c-4.9 1.8-12.8 6.8-17.6 11-5.1 4.4-10.5 11.4-12.9 16.6-3.3 7-4.2 11.9-4.2 23.5 0 11 0.9 16.4 3.4 21.4 1.9 3.7 7.3 10.3 12 14.8 4.8 4.5 11.4 9.3 14.9 10.6 3.7 1.4 9.7 1.9 15.1 1.4 4.9-0.6 11.7-2.3 15.1-3.8 3.4-1.6 9.4-5.6 13.4-8.9 4.3-3.6 9.5-10.7 13.1-18.2 4.7-9.4 6.3-15.3 6.9-24.8 0.5-6.9-0.1-15.9-1.2-20-1.1-4.3-4.8-10.7-8.6-14.8-4.1-4.4-9.8-8.2-14.7-9.8-4.4-1.5-12-2.6-16.9-2.5-4.9 0-12.9 1.6-17.8 3.5z"/></svg>